<svg xmlns="http://www.w3.org/2000/svg" xml:space="preserve" viewBox="0 0 2000 1200"><style>.st1{fill:#113c4c}.st2{fill:#1f4758}.st3{fill:#2c5364}.st4{fill:#18323b}.st5{fill:#102b34}.st6{fill:#203a43}</style><path fill="#0f2027" d="M0 0h2000v1200H0V0z"/><path d="m1900 1057.1-36 36 7.5 7.5 28.5-28.5v-15z" class="st1"/><path d="M1900 1057.1v15l28.6 28.5 7.5-7.5-36.1-36z" class="st2"/><path d="M1900 1163.2v15l70.7-70.7.1-15.1-70.8 70.8z" class="st1"/><path d="m1900 1163.2-70.8-70.7v15l70.8 70.7v-15z" class="st2"/><path d="m1900 1021.8-70.8 70.7 70.7 70.7 70.7-70.7-70.6-70.7zm0 106.1-35.4-35.4 35.4-35.4 35.4 35.4-35.4 35.4z" class="st3"/><path d="m1800 957.1-36 36 7.5 7.5 28.5-28.5v-15z" class="st4"/><path d="M1800 957.1v15l28.6 28.5 7.5-7.5-36.1-36z" class="st5"/><path d="M1800 1063.2v15l70.7-70.7.1-15.1-70.8 70.8z" class="st4"/><path d="m1800 1063.2-70.8-70.7v15l70.8 70.7v-15z" class="st5"/><path d="m1800 921.8-70.8 70.7 70.7 70.7 70.7-70.7-70.6-70.7zm0 106.1-35.4-35.4 35.4-35.4 35.4 35.4-35.4 35.4z" class="st6"/><path d="m2000 957.1-36 36 7.5 7.5 28.5-28.5v-15z" class="st4"/><path d="m2000 1063.2-70.8-70.7v15l70.8 70.7v-15z" class="st5"/><path d="m2000 921.8-70.8 70.7 70.7 70.7 70.7-70.7-70.6-70.7zm0 106.1-35.4-35.4 35.4-35.4 35.4 35.4-35.4 35.4z" class="st6"/><path d="m1700 1057.1-36 36 7.5 7.5 28.5-28.5v-15z" class="st1"/><path d="M1700 1057.1v15l28.6 28.5 7.5-7.5-36.1-36z" class="st2"/><path d="M1700 1163.2v15l70.7-70.7.1-15.1-70.8 70.8z" class="st1"/><path d="m1700 1163.2-70.8-70.7v15l70.8 70.7v-15z" class="st2"/><path d="m1700 1021.8-70.8 70.7 70.7 70.7 70.7-70.7-70.6-70.7zm0 106.1-35.4-35.4 35.4-35.4 35.4 35.4-35.4 35.4z" class="st3"/><path d="m1600 957.1-36 36 7.5 7.5 28.5-28.5v-15z" class="st4"/><path d="M1600 957.1v15l28.6 28.5 7.5-7.5-36.1-36z" class="st5"/><path d="M1600 1063.2v15l70.7-70.7.1-15.1-70.8 70.8z" class="st4"/><path d="m1600 1063.2-70.8-70.7v15l70.8 70.7v-15z" class="st5"/><path d="m1600 921.8-70.8 70.7 70.7 70.7 70.7-70.7-70.6-70.7zm0 106.1-35.4-35.4 35.4-35.4 35.4 35.4-35.4 35.4z" class="st6"/><path d="m1500 1057.1-36 36 7.5 7.5 28.5-28.5v-15z" class="st1"/><path d="M1500 1057.1v15l28.6 28.5 7.5-7.5-36.1-36z" class="st2"/><path d="M1500 1163.2v15l70.7-70.7.1-15.1-70.8 70.8z" class="st1"/><path d="m1500 1163.2-70.8-70.7v15l70.8 70.7v-15z" class="st2"/><path d="m1500 1021.8-70.8 70.7 70.7 70.7 70.7-70.7-70.6-70.7zm0 106.1-35.4-35.4 35.4-35.4 35.4 35.4-35.4 35.4z" class="st3"/><path d="m1400 957.1-36 36 7.5 7.5 28.5-28.5v-15z" class="st4"/><path d="M1400 957.1v15l28.6 28.5 7.5-7.5-36.1-36z" class="st5"/><path d="M1400 1063.2v15l70.7-70.7.1-15.1-70.8 70.8z" class="st4"/><path d="m1400 1063.2-70.8-70.7v15l70.8 70.7v-15z" class="st5"/><path d="m1400 921.8-70.8 70.7 70.7 70.7 70.7-70.7-70.6-70.7zm0 106.1-35.4-35.4 35.4-35.4 35.4 35.4-35.4 35.4z" class="st6"/><path d="m1300 1057.1-36 36 7.5 7.5 28.5-28.5v-15z" class="st1"/><path d="M1300 1057.1v15l28.6 28.5 7.5-7.5-36.1-36z" class="st2"/><path d="M1300 1163.2v15l70.7-70.7.1-15.1-70.8 70.8z" class="st1"/><path d="m1300 1163.2-70.8-70.7v15l70.8 70.7v-15z" class="st2"/><path d="m1300 1021.8-70.8 70.7 70.7 70.7 70.7-70.7-70.6-70.7zm0 106.1-35.4-35.4 35.4-35.4 35.4 35.4-35.4 35.4z" class="st3"/><path d="m1200 957.1-36 36 7.5 7.5 28.5-28.5v-15z" class="st4"/><path d="M1200 957.1v15l28.6 28.5 7.5-7.5-36.1-36z" class="st5"/><path d="M1200 1063.2v15l70.7-70.7.1-15.1-70.8 70.8z" class="st4"/><path d="m1200 1063.2-70.8-70.7v15l70.8 70.7v-15z" class="st5"/><path d="m1200 921.8-70.8 70.7 70.7 70.7 70.7-70.7-70.6-70.7zm0 106.1-35.4-35.4 35.4-35.4 35.4 35.4-35.4 35.4z" class="st6"/><path d="m1100 1057.1-36 36 7.5 7.5 28.5-28.5v-15z" class="st1"/><path d="M1100 1057.1v15l28.6 28.5 7.5-7.5-36.1-36z" class="st2"/><path d="M1100 1163.2v15l70.7-70.7.1-15.1-70.8 70.8z" class="st1"/><path d="m1100 1163.2-70.8-70.7v15l70.8 70.7v-15z" class="st2"/><path d="m1100 1021.8-70.8 70.7 70.7 70.7 70.7-70.7-70.6-70.7zm0 106.1-35.4-35.4 35.4-35.4 35.4 35.4-35.4 35.4z" class="st3"/><path d="m1000 957.1-36 36 7.5 7.5 28.5-28.5v-15z" class="st4"/><path d="M1000 957.1v15l28.6 28.5 7.5-7.5-36.1-36z" class="st5"/><path d="M1000 1063.2v15l70.7-70.7.1-15.1-70.8 70.8z" class="st4"/><path d="m1000 1063.2-70.8-70.7v15l70.8 70.7v-15z" class="st5"/><path d="m1000 921.8-70.8 70.7 70.7 70.7 70.7-70.7-70.6-70.7zm0 106.1-35.4-35.4 35.4-35.4 35.4 35.4-35.4 35.4z" class="st6"/><path d="m900 1057.1-36 36 7.5 7.5 28.5-28.5v-15z" class="st1"/><path d="M900 1057.1v15l28.6 28.5 7.5-7.5-36.1-36z" class="st2"/><path d="M900 1163.2v15l70.7-70.7.1-15.1-70.8 70.8z" class="st1"/><path d="m900 1163.2-70.8-70.7v15l70.8 70.7v-15z" class="st2"/><path d="m900 1021.8-70.8 70.7 70.7 70.7 70.7-70.7-70.6-70.7zm0 106.1-35.4-35.4 35.4-35.4 35.4 35.4-35.4 35.4z" class="st3"/><path d="m800 957.1-36 36 7.5 7.5 28.5-28.5v-15z" class="st4"/><path d="M800 957.1v15l28.6 28.5 7.5-7.5-36.1-36z" class="st5"/><path d="M800 1063.2v15l70.7-70.7.1-15.1-70.8 70.8z" class="st4"/><path d="m800 1063.2-70.8-70.7v15l70.8 70.7v-15z" class="st5"/><path d="m800 921.8-70.8 70.7 70.7 70.7 70.7-70.7-70.6-70.7zm0 106.1-35.4-35.4 35.4-35.4 35.4 35.4-35.4 35.4z" class="st6"/><path d="m700 1057.1-36 36 7.5 7.5 28.5-28.5v-15z" class="st1"/><path d="M700 1057.1v15l28.6 28.5 7.5-7.5-36.1-36z" class="st2"/><path d="M700 1163.2v15l70.7-70.7.1-15.1-70.8 70.8z" class="st1"/><path d="m700 1163.2-70.8-70.7v15l70.8 70.7v-15z" class="st2"/><path d="m700 1021.8-70.8 70.7 70.7 70.7 70.7-70.7-70.6-70.7zm0 106.1-35.4-35.4 35.4-35.4 35.4 35.4-35.4 35.4z" class="st3"/><path d="m600 957.1-36 36 7.5 7.5 28.5-28.5v-15z" class="st4"/><path d="M600 957.1v15l28.6 28.5 7.5-7.5-36.1-36z" class="st5"/><path d="M600 1063.2v15l70.7-70.7.1-15.1-70.8 70.8z" class="st4"/><path d="m600 1063.2-70.8-70.7v15l70.8 70.7v-15z" class="st5"/><path d="m600 921.8-70.8 70.7 70.7 70.7 70.7-70.7-70.6-70.7zm0 106.1-35.4-35.4 35.4-35.4 35.4 35.4-35.4 35.4z" class="st6"/><path d="m500 1057.1-36 36 7.5 7.5 28.5-28.5v-15z" class="st1"/><path d="M500 1057.1v15l28.6 28.5 7.5-7.5-36.1-36z" class="st2"/><path d="M500 1163.2v15l70.7-70.7.1-15.1-70.8 70.8z" class="st1"/><path d="m500 1163.2-70.8-70.7v15l70.8 70.7v-15z" class="st2"/><path d="m500 1021.8-70.8 70.7 70.7 70.7 70.7-70.7-70.6-70.7zm0 106.1-35.4-35.4 35.4-35.4 35.4 35.4-35.4 35.4z" class="st3"/><path d="m400 957.1-36 36 7.5 7.5 28.5-28.5v-15z" class="st4"/><path d="M400 957.1v15l28.6 28.5 7.5-7.5-36.1-36z" class="st5"/><path d="M400 1063.2v15l70.7-70.7.1-15.1-70.8 70.8z" class="st4"/><path d="m400 1063.2-70.8-70.7v15l70.8 70.7v-15z" class="st5"/><path d="m400 921.8-70.8 70.7 70.7 70.7 70.7-70.7-70.6-70.7zm0 106.1-35.4-35.4 35.4-35.4 35.4 35.4-35.4 35.4z" class="st6"/><path d="m300 1057.1-36 36 7.5 7.5 28.5-28.5v-15z" class="st1"/><path d="M300 1057.1v15l28.6 28.5 7.5-7.5-36.1-36z" class="st2"/><path d="M300 1163.2v15l70.7-70.7.1-15.1-70.8 70.8z" class="st1"/><path d="m300 1163.2-70.8-70.7v15l70.8 70.7v-15z" class="st2"/><path d="m300 1021.8-70.8 70.7 70.7 70.7 70.7-70.7-70.6-70.7zm0 106.1-35.4-35.4 35.4-35.4 35.4 35.4-35.4 35.4z" class="st3"/><path d="m200 957.1-36 36 7.5 7.5 28.5-28.5v-15z" class="st4"/><path d="M200 957.1v15l28.6 28.5 7.5-7.5-36.1-36z" class="st5"/><path d="M200 1063.2v15l70.7-70.7.1-15.1-70.8 70.8z" class="st4"/><path d="m200 1063.2-70.8-70.7v15l70.8 70.7v-15z" class="st5"/><path d="m200 921.8-70.8 70.7 70.7 70.7 70.7-70.7-70.6-70.7zm0 106.1-35.4-35.4 35.4-35.4 35.4 35.4-35.4 35.4z" class="st6"/><path d="m100 1057.1-36 36 7.5 7.5 28.5-28.5v-15z" class="st1"/><path d="M100 1057.1v15l28.6 28.5 7.5-7.5-36.1-36z" class="st2"/><path d="M100 1163.2v15l70.7-70.7.1-15.1-70.8 70.8z" class="st1"/><path d="m100 1163.2-70.8-70.7v15l70.8 70.7v-15z" class="st2"/><path d="m100 1021.8-70.8 70.7 70.7 70.7 70.7-70.7-70.6-70.7zm0 106.1-35.4-35.4 35.4-35.4 35.4 35.4-35.4 35.4z" class="st3"/><path d="M0 957.1v15l28.6 28.5 7.5-7.5-36.1-36z" class="st5"/><path d="M0 1063.2v15l70.7-70.7.1-15.1L0 1063.2z" class="st4"/><path d="m0 921.8-70.8 70.7 70.7 70.7 70.7-70.7L0 921.8zm0 106.1-35.4-35.4L0 957.1l35.4 35.4L0 1027.9z" class="st6"/><path d="m1900 857.1-36 36 7.5 7.5 28.5-28.5v-15z" class="st1"/><path d="M1900 857.1v15l28.6 28.5 7.5-7.5-36.1-36z" class="st2"/><path d="M1900 963.2v15l70.7-70.7.1-15.1-70.8 70.8z" class="st1"/><path d="m1900 963.2-70.8-70.7v15l70.8 70.7v-15z" class="st2"/><path d="m1900 821.8-70.8 70.7 70.7 70.7 70.7-70.7-70.6-70.7zm0 106.1-35.4-35.4 35.4-35.4 35.4 35.4-35.4 35.4z" class="st3"/><path d="m1800 757.1-36 36 7.5 7.5 28.5-28.5v-15z" class="st4"/><path d="M1800 757.1v15l28.6 28.5 7.5-7.5-36.1-36z" class="st5"/><path d="M1800 863.2v15l70.7-70.7.1-15.1-70.8 70.8z" class="st4"/><path d="m1800 863.2-70.8-70.7v15l70.8 70.7v-15z" class="st5"/><path d="m1800 721.8-70.8 70.7 70.7 70.7 70.7-70.7-70.6-70.7zm0 106.1-35.4-35.4 35.4-35.4 35.4 35.4-35.4 35.4z" class="st6"/><path d="m2000 757.1-36 36 7.5 7.5 28.5-28.5v-15z" class="st4"/><path d="m2000 863.2-70.8-70.7v15l70.8 70.7v-15z" class="st5"/><path d="m2000 721.8-70.8 70.7 70.7 70.7 70.7-70.7-70.6-70.7zm0 106.1-35.4-35.4 35.4-35.4 35.4 35.4-35.4 35.4z" class="st6"/><path d="m1700 857.1-36 36 7.5 7.5 28.5-28.5v-15z" class="st1"/><path d="M1700 857.1v15l28.6 28.5 7.5-7.5-36.1-36z" class="st2"/><path d="M1700 963.2v15l70.7-70.7.1-15.1-70.8 70.8z" class="st1"/><path d="m1700 963.2-70.8-70.7v15l70.8 70.7v-15z" class="st2"/><path d="m1700 821.8-70.8 70.7 70.7 70.7 70.7-70.7-70.6-70.7zm0 106.1-35.4-35.4 35.4-35.4 35.4 35.4-35.4 35.4z" class="st3"/><path d="m1600 757.1-36 36 7.5 7.5 28.5-28.5v-15z" class="st4"/><path d="M1600 757.1v15l28.6 28.5 7.5-7.5-36.1-36z" class="st5"/><path d="M1600 863.2v15l70.7-70.7.1-15.1-70.8 70.8z" class="st4"/><path d="m1600 863.2-70.8-70.7v15l70.8 70.7v-15z" class="st5"/><path d="m1600 721.8-70.8 70.7 70.7 70.7 70.7-70.7-70.6-70.7zm0 106.1-35.4-35.4 35.4-35.4 35.4 35.4-35.4 35.4z" class="st6"/><path d="m1500 857.1-36 36 7.5 7.5 28.5-28.5v-15z" class="st1"/><path d="M1500 857.1v15l28.6 28.5 7.5-7.5-36.1-36z" class="st2"/><path d="M1500 963.2v15l70.7-70.7.1-15.1-70.8 70.8z" class="st1"/><path d="m1500 963.2-70.8-70.7v15l70.8 70.7v-15z" class="st2"/><path d="m1500 821.8-70.8 70.7 70.7 70.7 70.7-70.7-70.6-70.7zm0 106.1-35.4-35.4 35.4-35.4 35.4 35.4-35.4 35.4z" class="st3"/><path d="m1400 757.1-36 36 7.5 7.5 28.5-28.5v-15z" class="st4"/><path d="M1400 757.1v15l28.6 28.5 7.5-7.5-36.1-36z" class="st5"/><path d="M1400 863.2v15l70.7-70.7.1-15.1-70.8 70.8z" class="st4"/><path d="m1400 863.2-70.8-70.7v15l70.8 70.7v-15z" class="st5"/><path d="m1400 721.8-70.8 70.7 70.7 70.7 70.7-70.7-70.6-70.7zm0 106.1-35.4-35.4 35.4-35.4 35.4 35.4-35.4 35.4z" class="st6"/><path d="m1300 857.1-36 36 7.5 7.5 28.5-28.5v-15z" class="st1"/><path d="M1300 857.1v15l28.6 28.5 7.5-7.5-36.1-36z" class="st2"/><path d="M1300 963.2v15l70.7-70.7.1-15.1-70.8 70.8z" class="st1"/><path d="m1300 963.2-70.8-70.7v15l70.8 70.7v-15z" class="st2"/><path d="m1300 821.8-70.8 70.7 70.7 70.7 70.7-70.7-70.6-70.7zm0 106.1-35.4-35.4 35.4-35.4 35.4 35.4-35.4 35.4z" class="st3"/><path d="m1200 757.1-36 36 7.5 7.5 28.5-28.5v-15z" class="st4"/><path d="M1200 757.1v15l28.6 28.5 7.5-7.5-36.1-36z" class="st5"/><path d="M1200 863.2v15l70.7-70.7.1-15.1-70.8 70.8z" class="st4"/><path d="m1200 863.2-70.8-70.7v15l70.8 70.7v-15z" class="st5"/><path d="m1200 721.8-70.8 70.7 70.7 70.7 70.7-70.7-70.6-70.7zm0 106.1-35.4-35.4 35.4-35.4 35.4 35.4-35.4 35.4z" class="st6"/><path d="m1100 857.1-36 36 7.5 7.5 28.5-28.5v-15z" class="st1"/><path d="M1100 857.1v15l28.6 28.5 7.5-7.5-36.1-36z" class="st2"/><path d="M1100 963.2v15l70.7-70.7.1-15.1-70.8 70.8z" class="st1"/><path d="m1100 963.2-70.8-70.7v15l70.8 70.7v-15z" class="st2"/><path d="m1100 821.8-70.8 70.7 70.7 70.7 70.7-70.7-70.6-70.7zm0 106.1-35.4-35.4 35.4-35.4 35.4 35.4-35.4 35.4z" class="st3"/><path d="m1000 757.1-36 36 7.5 7.5 28.5-28.5v-15z" class="st4"/><path d="M1000 757.1v15l28.6 28.5 7.5-7.5-36.1-36z" class="st5"/><path d="M1000 863.2v15l70.7-70.7.1-15.1-70.8 70.8z" class="st4"/><path d="m1000 863.2-70.8-70.7v15l70.8 70.7v-15z" class="st5"/><path d="m1000 721.8-70.8 70.7 70.7 70.7 70.7-70.7-70.6-70.7zm0 106.1-35.4-35.4 35.4-35.4 35.4 35.4-35.4 35.4z" class="st6"/><path d="m900 857.1-36 36 7.5 7.5 28.5-28.5v-15z" class="st1"/><path d="M900 857.1v15l28.6 28.5 7.5-7.5-36.1-36z" class="st2"/><path d="M900 963.2v15l70.7-70.7.1-15.1-70.8 70.8z" class="st1"/><path d="m900 963.2-70.8-70.7v15l70.8 70.7v-15z" class="st2"/><path d="m900 821.8-70.8 70.7 70.7 70.7 70.7-70.7-70.6-70.7zm0 106.1-35.4-35.4 35.4-35.4 35.4 35.4-35.4 35.4z" class="st3"/><path d="m800 757.1-36 36 7.5 7.5 28.5-28.5v-15z" class="st4"/><path d="M800 757.1v15l28.6 28.5 7.5-7.5-36.1-36z" class="st5"/><path d="M800 863.2v15l70.7-70.7.1-15.1-70.8 70.8z" class="st4"/><path d="m800 863.2-70.8-70.7v15l70.8 70.7v-15z" class="st5"/><path d="m800 721.8-70.8 70.7 70.7 70.7 70.7-70.7-70.6-70.7zm0 106.1-35.4-35.4 35.4-35.4 35.4 35.4-35.4 35.4z" class="st6"/><path d="m700 857.1-36 36 7.5 7.5 28.5-28.5v-15z" class="st1"/><path d="M700 857.1v15l28.6 28.5 7.5-7.5-36.1-36z" class="st2"/><path d="M700 963.2v15l70.7-70.7.1-15.1-70.8 70.8z" class="st1"/><path d="m700 963.2-70.8-70.7v15l70.8 70.7v-15z" class="st2"/><path d="m700 821.8-70.8 70.7 70.7 70.7 70.7-70.7-70.6-70.7zm0 106.1-35.4-35.4 35.4-35.4 35.4 35.4-35.4 35.4z" class="st3"/><path d="m600 757.1-36 36 7.5 7.5 28.5-28.5v-15z" class="st4"/><path d="M600 757.1v15l28.6 28.5 7.5-7.5-36.1-36z" class="st5"/><path d="M600 863.2v15l70.7-70.7.1-15.1-70.8 70.8z" class="st4"/><path d="m600 863.2-70.8-70.7v15l70.8 70.7v-15z" class="st5"/><path d="m600 721.8-70.8 70.7 70.7 70.7 70.7-70.7-70.6-70.7zm0 106.1-35.4-35.4 35.4-35.4 35.4 35.4-35.4 35.4z" class="st6"/><path d="m500 857.1-36 36 7.5 7.5 28.5-28.5v-15z" class="st1"/><path d="M500 857.1v15l28.6 28.5 7.5-7.5-36.1-36z" class="st2"/><path d="M500 963.2v15l70.7-70.7.1-15.1-70.8 70.8z" class="st1"/><path d="m500 963.2-70.8-70.7v15l70.8 70.7v-15z" class="st2"/><path d="m500 821.8-70.8 70.7 70.7 70.7 70.7-70.7-70.6-70.7zm0 106.1-35.4-35.4 35.4-35.4 35.4 35.4-35.4 35.4z" class="st3"/><path d="m400 757.1-36 36 7.5 7.5 28.5-28.5v-15z" class="st4"/><path d="M400 757.1v15l28.6 28.5 7.5-7.5-36.1-36z" class="st5"/><path d="M400 863.2v15l70.7-70.7.1-15.1-70.8 70.8z" class="st4"/><path d="m400 863.2-70.8-70.7v15l70.8 70.7v-15z" class="st5"/><path d="m400 721.8-70.8 70.7 70.7 70.7 70.7-70.7-70.6-70.7zm0 106.1-35.4-35.4 35.4-35.4 35.4 35.4-35.4 35.4z" class="st6"/><path d="m300 857.1-36 36 7.5 7.5 28.5-28.5v-15z" class="st1"/><path d="M300 857.1v15l28.6 28.5 7.5-7.5-36.1-36z" class="st2"/><path d="M300 963.2v15l70.7-70.7.1-15.1-70.8 70.8z" class="st1"/><path d="m300 963.2-70.8-70.7v15l70.8 70.7v-15z" class="st2"/><path d="m300 821.8-70.8 70.7 70.7 70.7 70.7-70.7-70.6-70.7zm0 106.1-35.4-35.4 35.4-35.4 35.4 35.4-35.4 35.4z" class="st3"/><path d="m200 757.1-36 36 7.5 7.5 28.5-28.5v-15z" class="st4"/><path d="M200 757.1v15l28.6 28.5 7.5-7.5-36.1-36z" class="st5"/><path d="M200 863.2v15l70.7-70.7.1-15.1-70.8 70.8z" class="st4"/><path d="m200 863.2-70.8-70.7v15l70.8 70.7v-15z" class="st5"/><path d="m200 721.8-70.8 70.7 70.7 70.7 70.7-70.7-70.6-70.7zm0 106.1-35.4-35.4 35.4-35.4 35.4 35.4-35.4 35.4z" class="st6"/><path d="m100 857.1-36 36 7.5 7.5 28.5-28.5v-15z" class="st1"/><path d="M100 857.1v15l28.6 28.5 7.5-7.5-36.1-36z" class="st2"/><path d="M100 963.2v15l70.7-70.7.1-15.1-70.8 70.8z" class="st1"/><path d="m100 963.2-70.8-70.7v15l70.8 70.7v-15z" class="st2"/><path d="m100 821.8-70.8 70.7 70.7 70.7 70.7-70.7-70.6-70.7zm0 106.1-35.4-35.4 35.4-35.4 35.4 35.4-35.4 35.4z" class="st3"/><path d="M0 757.1v15l28.6 28.5 7.5-7.5-36.1-36z" class="st5"/><path d="M0 863.2v15l70.7-70.7.1-15.1L0 863.2z" class="st4"/><path d="m0 721.8-70.8 70.7 70.7 70.7 70.7-70.7L0 721.8zm0 106.1-35.4-35.4L0 757.1l35.4 35.4L0 827.9z" class="st6"/><path d="m1900 657.1-36 36 7.5 7.5 28.5-28.5v-15z" class="st1"/><path d="M1900 657.1v15l28.6 28.5 7.5-7.5-36.1-36z" class="st2"/><path d="M1900 763.2v15l70.7-70.7.1-15.1-70.8 70.8z" class="st1"/><path d="m1900 763.2-70.8-70.7v15l70.8 70.7v-15z" class="st2"/><path d="m1900 621.8-70.8 70.7 70.7 70.7 70.7-70.7-70.6-70.7zm0 106.1-35.4-35.4 35.4-35.4 35.4 35.4-35.4 35.4z" class="st3"/><path d="m1800 557.1-36 36 7.5 7.5 28.5-28.5v-15z" class="st4"/><path d="M1800 557.1v15l28.6 28.5 7.5-7.5-36.1-36z" class="st5"/><path d="M1800 663.2v15l70.7-70.7.1-15.1-70.8 70.8z" class="st4"/><path d="m1800 663.2-70.8-70.7v15l70.8 70.7v-15z" class="st5"/><path d="m1800 521.8-70.8 70.7 70.7 70.7 70.7-70.7-70.6-70.7zm0 106.1-35.4-35.4 35.4-35.4 35.4 35.4-35.4 35.4z" class="st6"/><path d="m2000 557.1-36 36 7.5 7.5 28.5-28.5v-15z" class="st4"/><path d="m2000 663.2-70.8-70.7v15l70.8 70.7v-15z" class="st5"/><path d="m2000 521.8-70.8 70.7 70.7 70.7 70.7-70.7-70.6-70.7zm0 106.1-35.4-35.4 35.4-35.4 35.4 35.4-35.4 35.4z" class="st6"/><path d="m1700 657.1-36 36 7.5 7.5 28.5-28.5v-15z" class="st1"/><path d="M1700 657.1v15l28.6 28.5 7.5-7.5-36.1-36z" class="st2"/><path d="M1700 763.2v15l70.7-70.7.1-15.1-70.8 70.8z" class="st1"/><path d="m1700 763.2-70.8-70.7v15l70.8 70.7v-15z" class="st2"/><path d="m1700 621.8-70.8 70.7 70.7 70.7 70.7-70.7-70.6-70.7zm0 106.1-35.4-35.4 35.4-35.4 35.4 35.4-35.4 35.4z" class="st3"/><path d="m1600 557.1-36 36 7.5 7.5 28.5-28.5v-15z" class="st4"/><path d="M1600 557.1v15l28.6 28.5 7.5-7.5-36.1-36z" class="st5"/><path d="M1600 663.2v15l70.7-70.7.1-15.1-70.8 70.8z" class="st4"/><path d="m1600 663.2-70.8-70.7v15l70.8 70.7v-15z" class="st5"/><path d="m1600 521.8-70.8 70.7 70.7 70.7 70.7-70.7-70.6-70.7zm0 106.1-35.4-35.4 35.4-35.4 35.4 35.4-35.4 35.4z" class="st6"/><path d="m1500 657.1-36 36 7.5 7.5 28.5-28.5v-15z" class="st1"/><path d="M1500 657.1v15l28.6 28.5 7.5-7.5-36.1-36z" class="st2"/><path d="M1500 763.2v15l70.7-70.7.1-15.1-70.8 70.8z" class="st1"/><path d="m1500 763.2-70.8-70.7v15l70.8 70.7v-15z" class="st2"/><path d="m1500 621.8-70.8 70.7 70.7 70.7 70.7-70.7-70.6-70.7zm0 106.1-35.4-35.4 35.4-35.4 35.4 35.4-35.4 35.4z" class="st3"/><path d="m1400 557.1-36 36 7.5 7.5 28.5-28.5v-15z" class="st4"/><path d="M1400 557.1v15l28.6 28.5 7.5-7.5-36.1-36z" class="st5"/><path d="M1400 663.2v15l70.7-70.7.1-15.1-70.8 70.8z" class="st4"/><path d="m1400 663.2-70.8-70.7v15l70.8 70.7v-15z" class="st5"/><path d="m1400 521.8-70.8 70.7 70.7 70.7 70.7-70.7-70.6-70.7zm0 106.1-35.4-35.4 35.4-35.4 35.4 35.4-35.4 35.4z" class="st6"/><path d="m1300 657.1-36 36 7.5 7.5 28.5-28.5v-15z" class="st1"/><path d="M1300 657.1v15l28.6 28.5 7.5-7.5-36.1-36z" class="st2"/><path d="M1300 763.2v15l70.7-70.7.1-15.1-70.8 70.8z" class="st1"/><path d="m1300 763.2-70.8-70.7v15l70.8 70.7v-15z" class="st2"/><path d="m1300 621.8-70.8 70.7 70.7 70.7 70.7-70.7-70.6-70.7zm0 106.1-35.4-35.4 35.4-35.4 35.4 35.4-35.4 35.4z" class="st3"/><path d="m1200 557.1-36 36 7.5 7.5 28.5-28.5v-15z" class="st4"/><path d="M1200 557.1v15l28.6 28.5 7.5-7.5-36.1-36z" class="st5"/><path d="M1200 663.2v15l70.7-70.7.1-15.1-70.8 70.8z" class="st4"/><path d="m1200 663.2-70.8-70.7v15l70.8 70.7v-15z" class="st5"/><path d="m1200 521.8-70.8 70.7 70.7 70.7 70.7-70.7-70.6-70.7zm0 106.1-35.4-35.4 35.4-35.4 35.4 35.4-35.4 35.4z" class="st6"/><path d="m1100 657.1-36 36 7.5 7.5 28.5-28.5v-15z" class="st1"/><path d="M1100 657.1v15l28.6 28.5 7.5-7.5-36.1-36z" class="st2"/><path d="M1100 763.2v15l70.7-70.7.1-15.1-70.8 70.8z" class="st1"/><path d="m1100 763.2-70.8-70.7v15l70.8 70.7v-15z" class="st2"/><path d="m1100 621.8-70.8 70.7 70.7 70.7 70.7-70.7-70.6-70.7zm0 106.1-35.4-35.4 35.4-35.4 35.4 35.4-35.4 35.4z" class="st3"/><path d="m1000 557.1-36 36 7.5 7.5 28.5-28.5v-15z" class="st4"/><path d="M1000 557.1v15l28.6 28.5 7.5-7.5-36.1-36z" class="st5"/><path d="M1000 663.2v15l70.7-70.7.1-15.1-70.8 70.8z" class="st4"/><path d="m1000 663.2-70.8-70.7v15l70.8 70.7v-15z" class="st5"/><path d="m1000 521.8-70.8 70.7 70.7 70.7 70.7-70.7-70.6-70.7zm0 106.1-35.4-35.4 35.4-35.4 35.4 35.4-35.4 35.4z" class="st6"/><path d="m900 657.1-36 36 7.5 7.5 28.5-28.5v-15z" class="st1"/><path d="M900 657.1v15l28.6 28.5 7.5-7.5-36.1-36z" class="st2"/><path d="M900 763.2v15l70.7-70.7.1-15.1-70.8 70.8z" class="st1"/><path d="m900 763.2-70.8-70.7v15l70.8 70.7v-15z" class="st2"/><path d="m900 621.8-70.8 70.7 70.7 70.7 70.7-70.7-70.6-70.7zm0 106.1-35.4-35.4 35.4-35.4 35.4 35.4-35.4 35.4z" class="st3"/><path d="m800 557.1-36 36 7.5 7.5 28.5-28.5v-15z" class="st4"/><path d="M800 557.1v15l28.6 28.5 7.5-7.5-36.1-36z" class="st5"/><path d="M800 663.2v15l70.7-70.7.1-15.1-70.8 70.8z" class="st4"/><path d="m800 663.2-70.8-70.7v15l70.8 70.7v-15z" class="st5"/><path d="m800 521.8-70.8 70.7 70.7 70.7 70.7-70.7-70.6-70.7zm0 106.1-35.4-35.4 35.4-35.4 35.4 35.4-35.4 35.4z" class="st6"/><path d="m700 657.1-36 36 7.5 7.5 28.5-28.5v-15z" class="st1"/><path d="M700 657.1v15l28.6 28.5 7.5-7.5-36.1-36z" class="st2"/><path d="M700 763.2v15l70.7-70.7.1-15.1-70.8 70.8z" class="st1"/><path d="m700 763.2-70.8-70.7v15l70.8 70.7v-15z" class="st2"/><path d="m700 621.8-70.8 70.7 70.7 70.7 70.7-70.7-70.6-70.7zm0 106.1-35.4-35.4 35.4-35.4 35.4 35.4-35.4 35.4z" class="st3"/><path d="m600 557.1-36 36 7.5 7.5 28.5-28.5v-15z" class="st4"/><path d="M600 557.1v15l28.6 28.5 7.5-7.5-36.1-36z" class="st5"/><path d="M600 663.2v15l70.7-70.7.1-15.1-70.8 70.8z" class="st4"/><path d="m600 663.2-70.8-70.7v15l70.8 70.7v-15z" class="st5"/><path d="m600 521.8-70.8 70.7 70.7 70.7 70.7-70.7-70.6-70.7zm0 106.1-35.4-35.4 35.4-35.4 35.4 35.4-35.4 35.4z" class="st6"/><path d="m500 657.1-36 36 7.5 7.5 28.5-28.5v-15z" class="st1"/><path d="M500 657.1v15l28.6 28.5 7.5-7.5-36.1-36z" class="st2"/><path d="M500 763.2v15l70.7-70.7.1-15.1-70.8 70.8z" class="st1"/><path d="m500 763.2-70.8-70.7v15l70.8 70.7v-15z" class="st2"/><path d="m500 621.8-70.8 70.7 70.7 70.7 70.7-70.7-70.6-70.7zm0 106.1-35.4-35.4 35.4-35.4 35.4 35.4-35.4 35.4z" class="st3"/><path d="m400 557.1-36 36 7.5 7.5 28.5-28.5v-15z" class="st4"/><path d="M400 557.1v15l28.6 28.5 7.5-7.5-36.1-36z" class="st5"/><path d="M400 663.2v15l70.7-70.7.1-15.1-70.8 70.8z" class="st4"/><path d="m400 663.2-70.8-70.7v15l70.8 70.7v-15z" class="st5"/><path d="m400 521.8-70.8 70.7 70.7 70.7 70.7-70.7-70.6-70.7zm0 106.1-35.4-35.4 35.4-35.4 35.4 35.4-35.4 35.4z" class="st6"/><path d="m300 657.1-36 36 7.5 7.5 28.5-28.5v-15z" class="st1"/><path d="M300 657.1v15l28.6 28.5 7.5-7.5-36.1-36z" class="st2"/><path d="M300 763.2v15l70.7-70.7.1-15.1-70.8 70.8z" class="st1"/><path d="m300 763.2-70.8-70.7v15l70.8 70.7v-15z" class="st2"/><path d="m300 621.8-70.8 70.7 70.7 70.7 70.7-70.7-70.6-70.7zm0 106.1-35.4-35.4 35.4-35.4 35.4 35.4-35.4 35.4z" class="st3"/><path d="m200 557.1-36 36 7.5 7.5 28.5-28.5v-15z" class="st4"/><path d="M200 557.1v15l28.6 28.5 7.5-7.5-36.1-36z" class="st5"/><path d="M200 663.2v15l70.7-70.7.1-15.1-70.8 70.8z" class="st4"/><path d="m200 663.2-70.8-70.7v15l70.8 70.7v-15z" class="st5"/><path d="m200 521.8-70.8 70.7 70.7 70.7 70.7-70.7-70.6-70.7zm0 106.1-35.4-35.4 35.4-35.4 35.4 35.4-35.4 35.4z" class="st6"/><path d="m100 657.1-36 36 7.5 7.5 28.5-28.5v-15z" class="st1"/><path d="M100 657.1v15l28.6 28.5 7.5-7.5-36.1-36z" class="st2"/><path d="M100 763.2v15l70.7-70.7.1-15.1-70.8 70.8z" class="st1"/><path d="m100 763.2-70.8-70.7v15l70.8 70.7v-15z" class="st2"/><path d="m100 621.8-70.8 70.7 70.7 70.7 70.7-70.7-70.6-70.7zm0 106.1-35.4-35.4 35.4-35.4 35.4 35.4-35.4 35.4z" class="st3"/><path d="M0 557.1v15l28.6 28.5 7.5-7.5-36.1-36z" class="st5"/><path d="M0 663.2v15l70.7-70.7.1-15.1L0 663.2z" class="st4"/><path d="m0 521.8-70.8 70.7 70.7 70.7 70.7-70.7L0 521.8zm0 106.1-35.4-35.4L0 557.1l35.4 35.4L0 627.9z" class="st6"/><path d="m1900 457.1-36 36 7.5 7.5 28.5-28.5v-15z" class="st1"/><path d="M1900 457.1v15l28.6 28.5 7.5-7.5-36.1-36z" class="st2"/><path d="M1900 563.2v15l70.7-70.7.1-15.1-70.8 70.8z" class="st1"/><path d="m1900 563.2-70.8-70.7v15l70.8 70.7v-15z" class="st2"/><path d="m1900 421.8-70.8 70.7 70.7 70.7 70.7-70.7-70.6-70.7zm0 106.1-35.4-35.4 35.4-35.4 35.4 35.4-35.4 35.4z" class="st3"/><path d="m1800 357.1-36 36 7.5 7.5 28.5-28.5v-15z" class="st4"/><path d="M1800 357.1v15l28.6 28.5 7.5-7.5-36.1-36z" class="st5"/><path d="M1800 463.2v15l70.7-70.7.1-15.1-70.8 70.8z" class="st4"/><path d="m1800 463.2-70.8-70.7v15l70.8 70.7v-15z" class="st5"/><path d="m1800 321.8-70.8 70.7 70.7 70.7 70.7-70.7-70.6-70.7zm0 106.1-35.4-35.4 35.4-35.4 35.4 35.4-35.4 35.4z" class="st6"/><path d="m2000 357.1-36 36 7.5 7.5 28.5-28.5v-15z" class="st4"/><path d="m2000 463.2-70.8-70.7v15l70.8 70.7v-15z" class="st5"/><path d="m2000 321.8-70.8 70.7 70.7 70.7 70.7-70.7-70.6-70.7zm0 106.1-35.4-35.4 35.4-35.4 35.4 35.4-35.4 35.4z" class="st6"/><path d="m1700 457.1-36 36 7.5 7.5 28.5-28.5v-15z" class="st1"/><path d="M1700 457.1v15l28.6 28.5 7.5-7.5-36.1-36z" class="st2"/><path d="M1700 563.2v15l70.7-70.7.1-15.1-70.8 70.8z" class="st1"/><path d="m1700 563.2-70.8-70.7v15l70.8 70.7v-15z" class="st2"/><path d="m1700 421.8-70.8 70.7 70.7 70.7 70.7-70.7-70.6-70.7zm0 106.1-35.4-35.4 35.4-35.4 35.4 35.4-35.4 35.4z" class="st3"/><path d="m1600 357.1-36 36 7.5 7.5 28.5-28.5v-15z" class="st4"/><path d="M1600 357.1v15l28.6 28.5 7.5-7.5-36.1-36z" class="st5"/><path d="M1600 463.2v15l70.7-70.7.1-15.1-70.8 70.8z" class="st4"/><path d="m1600 463.2-70.8-70.7v15l70.8 70.7v-15z" class="st5"/><path d="m1600 321.8-70.8 70.7 70.7 70.7 70.7-70.7-70.6-70.7zm0 106.1-35.4-35.4 35.4-35.4 35.4 35.4-35.4 35.4z" class="st6"/><path d="m1500 457.1-36 36 7.5 7.5 28.5-28.5v-15z" class="st1"/><path d="M1500 457.1v15l28.6 28.5 7.5-7.5-36.1-36z" class="st2"/><path d="M1500 563.2v15l70.7-70.7.1-15.1-70.8 70.8z" class="st1"/><path d="m1500 563.2-70.8-70.7v15l70.8 70.7v-15z" class="st2"/><path d="m1500 421.8-70.8 70.7 70.7 70.7 70.7-70.7-70.6-70.7zm0 106.1-35.4-35.4 35.4-35.4 35.4 35.4-35.4 35.4z" class="st3"/><path d="m1400 357.1-36 36 7.5 7.5 28.5-28.5v-15z" class="st4"/><path d="M1400 357.1v15l28.6 28.5 7.5-7.5-36.1-36z" class="st5"/><path d="M1400 463.2v15l70.7-70.7.1-15.1-70.8 70.8z" class="st4"/><path d="m1400 463.2-70.8-70.7v15l70.8 70.7v-15z" class="st5"/><path d="m1400 321.8-70.8 70.7 70.7 70.7 70.7-70.7-70.6-70.7zm0 106.1-35.4-35.4 35.4-35.4 35.4 35.4-35.4 35.4z" class="st6"/><path d="m1300 457.1-36 36 7.5 7.5 28.5-28.5v-15z" class="st1"/><path d="M1300 457.1v15l28.6 28.5 7.5-7.5-36.1-36z" class="st2"/><path d="M1300 563.2v15l70.7-70.7.1-15.1-70.8 70.8z" class="st1"/><path d="m1300 563.2-70.8-70.7v15l70.8 70.7v-15z" class="st2"/><path d="m1300 421.8-70.8 70.7 70.7 70.7 70.7-70.7-70.6-70.7zm0 106.1-35.4-35.4 35.4-35.4 35.4 35.4-35.4 35.4z" class="st3"/><path d="m1200 357.1-36 36 7.5 7.5 28.5-28.5v-15z" class="st4"/><path d="M1200 357.1v15l28.6 28.5 7.5-7.5-36.1-36z" class="st5"/><path d="M1200 463.2v15l70.7-70.7.1-15.1-70.8 70.8z" class="st4"/><path d="m1200 463.2-70.8-70.7v15l70.8 70.7v-15z" class="st5"/><path d="m1200 321.8-70.8 70.7 70.7 70.7 70.7-70.7-70.6-70.7zm0 106.1-35.4-35.4 35.4-35.4 35.4 35.4-35.4 35.4z" class="st6"/><path d="m1100 457.1-36 36 7.5 7.5 28.5-28.5v-15z" class="st1"/><path d="M1100 457.1v15l28.6 28.5 7.5-7.5-36.1-36z" class="st2"/><path d="M1100 563.2v15l70.7-70.7.1-15.1-70.8 70.8z" class="st1"/><path d="m1100 563.2-70.8-70.7v15l70.8 70.7v-15z" class="st2"/><path d="m1100 421.8-70.8 70.7 70.7 70.7 70.7-70.7-70.6-70.7zm0 106.1-35.4-35.4 35.4-35.4 35.4 35.4-35.4 35.4z" class="st3"/><path d="m1000 357.1-36 36 7.5 7.5 28.5-28.5v-15z" class="st4"/><path d="M1000 357.1v15l28.6 28.5 7.5-7.5-36.1-36z" class="st5"/><path d="M1000 463.2v15l70.7-70.7.1-15.1-70.8 70.8z" class="st4"/><path d="m1000 463.2-70.8-70.7v15l70.8 70.7v-15z" class="st5"/><path d="m1000 321.8-70.8 70.7 70.7 70.7 70.7-70.7-70.6-70.7zm0 106.1-35.4-35.4 35.4-35.4 35.4 35.4-35.4 35.4z" class="st6"/><path d="m900 457.1-36 36 7.5 7.5 28.5-28.5v-15z" class="st1"/><path d="M900 457.1v15l28.6 28.5 7.5-7.5-36.1-36z" class="st2"/><path d="M900 563.2v15l70.7-70.7.1-15.1-70.8 70.8z" class="st1"/><path d="m900 563.2-70.8-70.7v15l70.8 70.7v-15z" class="st2"/><path d="m900 421.8-70.8 70.7 70.7 70.7 70.7-70.7-70.6-70.7zm0 106.1-35.4-35.4 35.4-35.4 35.4 35.4-35.4 35.4z" class="st3"/><path d="m800 357.1-36 36 7.5 7.5 28.5-28.5v-15z" class="st4"/><path d="M800 357.1v15l28.6 28.5 7.5-7.5-36.1-36z" class="st5"/><path d="M800 463.2v15l70.7-70.7.1-15.1-70.8 70.8z" class="st4"/><path d="m800 463.2-70.8-70.7v15l70.8 70.7v-15z" class="st5"/><path d="m800 321.8-70.8 70.7 70.7 70.7 70.7-70.7-70.6-70.7zm0 106.1-35.4-35.4 35.4-35.4 35.4 35.4-35.4 35.4z" class="st6"/><path d="m700 457.1-36 36 7.5 7.5 28.5-28.5v-15z" class="st1"/><path d="M700 457.1v15l28.6 28.5 7.5-7.5-36.1-36z" class="st2"/><path d="M700 563.2v15l70.7-70.7.1-15.1-70.8 70.8z" class="st1"/><path d="m700 563.2-70.8-70.7v15l70.8 70.7v-15z" class="st2"/><path d="m700 421.8-70.8 70.7 70.7 70.7 70.7-70.7-70.6-70.7zm0 106.1-35.4-35.4 35.4-35.4 35.4 35.4-35.4 35.4z" class="st3"/><path d="m600 357.1-36 36 7.5 7.5 28.5-28.5v-15z" class="st4"/><path d="M600 357.1v15l28.6 28.5 7.5-7.5-36.1-36z" class="st5"/><path d="M600 463.2v15l70.7-70.7.1-15.1-70.8 70.8z" class="st4"/><path d="m600 463.2-70.8-70.7v15l70.8 70.7v-15z" class="st5"/><path d="m600 321.8-70.8 70.7 70.7 70.7 70.7-70.7-70.6-70.7zm0 106.1-35.4-35.4 35.4-35.4 35.4 35.4-35.4 35.4z" class="st6"/><path d="m500 457.1-36 36 7.5 7.5 28.5-28.5v-15z" class="st1"/><path d="M500 457.1v15l28.6 28.5 7.5-7.5-36.1-36z" class="st2"/><path d="M500 563.2v15l70.7-70.7.1-15.1-70.8 70.8z" class="st1"/><path d="m500 563.2-70.8-70.7v15l70.8 70.7v-15z" class="st2"/><path d="m500 421.8-70.8 70.7 70.7 70.7 70.7-70.7-70.6-70.7zm0 106.1-35.4-35.4 35.4-35.4 35.4 35.4-35.4 35.4z" class="st3"/><path d="m400 357.1-36 36 7.5 7.5 28.5-28.5v-15z" class="st4"/><path d="M400 357.1v15l28.6 28.5 7.5-7.5-36.1-36z" class="st5"/><path d="M400 463.2v15l70.7-70.7.1-15.1-70.8 70.8z" class="st4"/><path d="m400 463.2-70.8-70.7v15l70.8 70.7v-15z" class="st5"/><path d="m400 321.8-70.8 70.7 70.7 70.7 70.7-70.7-70.6-70.7zm0 106.1-35.4-35.4 35.4-35.4 35.4 35.4-35.4 35.4z" class="st6"/><path d="m300 457.1-36 36 7.5 7.5 28.5-28.5v-15z" class="st1"/><path d="M300 457.1v15l28.6 28.5 7.5-7.5-36.1-36z" class="st2"/><path d="M300 563.2v15l70.7-70.7.1-15.1-70.8 70.8z" class="st1"/><path d="m300 563.2-70.8-70.7v15l70.8 70.7v-15z" class="st2"/><path d="m300 421.8-70.8 70.7 70.7 70.7 70.7-70.7-70.6-70.7zm0 106.1-35.4-35.4 35.4-35.4 35.4 35.4-35.4 35.4z" class="st3"/><path d="m200 357.1-36 36 7.5 7.5 28.5-28.5v-15z" class="st4"/><path d="M200 357.1v15l28.6 28.5 7.5-7.5-36.1-36z" class="st5"/><path d="M200 463.2v15l70.7-70.7.1-15.1-70.8 70.8z" class="st4"/><path d="m200 463.2-70.8-70.7v15l70.8 70.7v-15z" class="st5"/><path d="m200 321.8-70.8 70.7 70.7 70.7 70.7-70.7-70.6-70.7zm0 106.1-35.4-35.4 35.4-35.4 35.4 35.4-35.4 35.4z" class="st6"/><path d="m100 457.1-36 36 7.5 7.5 28.5-28.5v-15z" class="st1"/><path d="M100 457.1v15l28.6 28.5 7.5-7.5-36.1-36z" class="st2"/><path d="M100 563.2v15l70.7-70.7.1-15.1-70.8 70.8z" class="st1"/><path d="m100 563.2-70.8-70.7v15l70.8 70.7v-15z" class="st2"/><path d="m100 421.8-70.8 70.7 70.7 70.7 70.7-70.7-70.6-70.7zm0 106.1-35.4-35.4 35.4-35.4 35.4 35.4-35.4 35.4z" class="st3"/><path d="M0 357.1v15l28.6 28.5 7.5-7.5-36.1-36z" class="st5"/><path d="M0 463.2v15l70.7-70.7.1-15.1L0 463.2z" class="st4"/><path d="m0 321.8-70.8 70.7 70.7 70.7 70.7-70.7L0 321.8zm0 106.1-35.4-35.4L0 357.1l35.4 35.4L0 427.9z" class="st6"/><path d="m1900 257.1-36 36 7.5 7.5 28.5-28.5v-15z" class="st1"/><path d="M1900 257.1v15l28.6 28.5 7.5-7.5-36.1-36z" class="st2"/><path d="M1900 363.2v15l70.7-70.7.1-15.1-70.8 70.8z" class="st1"/><path d="m1900 363.2-70.8-70.7v15l70.8 70.7v-15z" class="st2"/><path d="m1900 221.8-70.8 70.7 70.7 70.7 70.7-70.7-70.6-70.7zm0 106.1-35.4-35.4 35.4-35.4 35.4 35.4-35.4 35.4z" class="st3"/><path d="m1800 157.1-36 36 7.5 7.5 28.5-28.5v-15z" class="st4"/><path d="M1800 157.1v15l28.6 28.5 7.5-7.5-36.1-36z" class="st5"/><path d="M1800 263.2v15l70.7-70.7.1-15.1-70.8 70.8z" class="st4"/><path d="m1800 263.2-70.8-70.7v15l70.8 70.7v-15z" class="st5"/><path d="m1800 121.8-70.8 70.7 70.7 70.7 70.7-70.7-70.6-70.7zm0 106.1-35.4-35.4 35.4-35.4 35.4 35.4-35.4 35.4z" class="st6"/><path d="m2000 157.1-36 36 7.5 7.5 28.5-28.5v-15z" class="st4"/><path d="m2000 263.2-70.8-70.7v15l70.8 70.7v-15z" class="st5"/><path d="m2000 121.8-70.8 70.7 70.7 70.7 70.7-70.7-70.6-70.7zm0 106.1-35.4-35.4 35.4-35.4 35.4 35.4-35.4 35.4z" class="st6"/><path d="m1700 257.1-36 36 7.5 7.5 28.5-28.5v-15z" class="st1"/><path d="M1700 257.1v15l28.6 28.5 7.5-7.5-36.1-36z" class="st2"/><path d="M1700 363.2v15l70.7-70.7.1-15.1-70.8 70.8z" class="st1"/><path d="m1700 363.2-70.8-70.7v15l70.8 70.7v-15z" class="st2"/><path d="m1700 221.8-70.8 70.7 70.7 70.7 70.7-70.7-70.6-70.7zm0 106.1-35.4-35.4 35.4-35.4 35.4 35.4-35.4 35.4z" class="st3"/><path d="m1600 157.1-36 36 7.5 7.5 28.5-28.5v-15z" class="st4"/><path d="M1600 157.1v15l28.6 28.5 7.5-7.5-36.1-36z" class="st5"/><path d="M1600 263.2v15l70.7-70.7.1-15.1-70.8 70.8z" class="st4"/><path d="m1600 263.2-70.8-70.7v15l70.8 70.7v-15z" class="st5"/><path d="m1600 121.8-70.8 70.7 70.7 70.7 70.7-70.7-70.6-70.7zm0 106.1-35.4-35.4 35.4-35.4 35.4 35.4-35.4 35.4z" class="st6"/><path d="m1500 257.1-36 36 7.5 7.5 28.5-28.5v-15z" class="st1"/><path d="M1500 257.1v15l28.6 28.5 7.5-7.5-36.1-36z" class="st2"/><path d="M1500 363.2v15l70.7-70.7.1-15.1-70.8 70.8z" class="st1"/><path d="m1500 363.2-70.8-70.7v15l70.8 70.7v-15z" class="st2"/><path d="m1500 221.8-70.8 70.7 70.7 70.7 70.7-70.7-70.6-70.7zm0 106.1-35.4-35.4 35.4-35.4 35.4 35.4-35.4 35.4z" class="st3"/><path d="m1400 157.1-36 36 7.5 7.5 28.5-28.5v-15z" class="st4"/><path d="M1400 157.1v15l28.6 28.5 7.5-7.5-36.1-36z" class="st5"/><path d="M1400 263.2v15l70.7-70.7.1-15.1-70.8 70.8z" class="st4"/><path d="m1400 263.2-70.8-70.7v15l70.8 70.7v-15z" class="st5"/><path d="m1400 121.8-70.8 70.7 70.7 70.7 70.7-70.7-70.6-70.7zm0 106.1-35.4-35.4 35.4-35.4 35.4 35.4-35.4 35.4z" class="st6"/><path d="m1300 257.1-36 36 7.5 7.5 28.5-28.5v-15z" class="st1"/><path d="M1300 257.1v15l28.6 28.5 7.5-7.5-36.1-36z" class="st2"/><path d="M1300 363.2v15l70.7-70.7.1-15.1-70.8 70.8z" class="st1"/><path d="m1300 363.2-70.8-70.7v15l70.8 70.7v-15z" class="st2"/><path d="m1300 221.8-70.8 70.7 70.7 70.7 70.7-70.7-70.6-70.7zm0 106.1-35.4-35.4 35.4-35.4 35.4 35.4-35.4 35.4z" class="st3"/><path d="m1200 157.1-36 36 7.5 7.5 28.5-28.5v-15z" class="st4"/><path d="M1200 157.1v15l28.6 28.5 7.5-7.5-36.1-36z" class="st5"/><path d="M1200 263.2v15l70.7-70.7.1-15.1-70.8 70.8z" class="st4"/><path d="m1200 263.2-70.8-70.7v15l70.8 70.7v-15z" class="st5"/><path d="m1200 121.8-70.8 70.7 70.7 70.7 70.7-70.7-70.6-70.7zm0 106.1-35.4-35.4 35.4-35.4 35.4 35.4-35.4 35.4z" class="st6"/><path d="m1100 257.1-36 36 7.5 7.5 28.5-28.5v-15z" class="st1"/><path d="M1100 257.1v15l28.6 28.5 7.5-7.5-36.1-36z" class="st2"/><path d="M1100 363.2v15l70.7-70.7.1-15.1-70.8 70.8z" class="st1"/><path d="m1100 363.2-70.8-70.7v15l70.8 70.7v-15z" class="st2"/><path d="m1100 221.8-70.8 70.7 70.7 70.7 70.7-70.7-70.6-70.7zm0 106.1-35.4-35.4 35.4-35.4 35.4 35.4-35.4 35.4z" class="st3"/><path d="m1000 157.1-36 36 7.5 7.5 28.5-28.5v-15z" class="st4"/><path d="M1000 157.1v15l28.6 28.5 7.5-7.5-36.1-36z" class="st5"/><path d="M1000 263.2v15l70.7-70.7.1-15.1-70.8 70.8z" class="st4"/><path d="m1000 263.2-70.8-70.7v15l70.8 70.7v-15z" class="st5"/><path d="m1000 121.8-70.8 70.7 70.7 70.7 70.7-70.7-70.6-70.7zm0 106.1-35.4-35.4 35.4-35.4 35.4 35.4-35.4 35.4z" class="st6"/><path d="m900 257.1-36 36 7.5 7.5 28.5-28.5v-15z" class="st1"/><path d="M900 257.1v15l28.6 28.5 7.5-7.5-36.1-36z" class="st2"/><path d="M900 363.2v15l70.7-70.7.1-15.1-70.8 70.8z" class="st1"/><path d="m900 363.2-70.8-70.7v15l70.8 70.7v-15z" class="st2"/><path d="m900 221.8-70.8 70.7 70.7 70.7 70.7-70.7-70.6-70.7zm0 106.1-35.4-35.4 35.4-35.4 35.4 35.4-35.4 35.4z" class="st3"/><path d="m800 157.1-36 36 7.5 7.5 28.5-28.5v-15z" class="st4"/><path d="M800 157.1v15l28.6 28.5 7.5-7.5-36.1-36z" class="st5"/><path d="M800 263.2v15l70.7-70.7.1-15.1-70.8 70.8z" class="st4"/><path d="m800 263.2-70.8-70.7v15l70.8 70.7v-15z" class="st5"/><path d="m800 121.8-70.8 70.7 70.7 70.7 70.7-70.7-70.6-70.7zm0 106.1-35.4-35.4 35.4-35.4 35.4 35.4-35.4 35.4z" class="st6"/><path d="m700 257.1-36 36 7.5 7.5 28.5-28.5v-15z" class="st1"/><path d="M700 257.1v15l28.6 28.5 7.5-7.5-36.1-36z" class="st2"/><path d="M700 363.2v15l70.7-70.7.1-15.1-70.8 70.8z" class="st1"/><path d="m700 363.2-70.8-70.7v15l70.8 70.7v-15z" class="st2"/><path d="m700 221.8-70.8 70.7 70.7 70.7 70.7-70.7-70.6-70.7zm0 106.1-35.4-35.4 35.4-35.4 35.4 35.4-35.4 35.4z" class="st3"/><path d="m600 157.1-36 36 7.5 7.5 28.5-28.5v-15z" class="st4"/><path d="M600 157.1v15l28.6 28.5 7.5-7.5-36.1-36z" class="st5"/><path d="M600 263.2v15l70.7-70.7.1-15.1-70.8 70.8z" class="st4"/><path d="m600 263.2-70.8-70.7v15l70.8 70.7v-15z" class="st5"/><path d="m600 121.8-70.8 70.7 70.7 70.7 70.7-70.7-70.6-70.7zm0 106.1-35.4-35.4 35.4-35.4 35.4 35.4-35.4 35.4z" class="st6"/><path d="m500 257.1-36 36 7.5 7.5 28.5-28.5v-15z" class="st1"/><path d="M500 257.1v15l28.6 28.5 7.5-7.5-36.1-36z" class="st2"/><path d="M500 363.2v15l70.7-70.7.1-15.1-70.8 70.8z" class="st1"/><path d="m500 363.2-70.8-70.7v15l70.8 70.7v-15z" class="st2"/><path d="m500 221.8-70.8 70.7 70.7 70.7 70.7-70.7-70.6-70.7zm0 106.1-35.4-35.4 35.4-35.4 35.4 35.4-35.4 35.4z" class="st3"/><path d="m400 157.1-36 36 7.5 7.5 28.5-28.5v-15z" class="st4"/><path d="M400 157.1v15l28.6 28.5 7.5-7.5-36.1-36z" class="st5"/><path d="M400 263.2v15l70.7-70.7.1-15.1-70.8 70.8z" class="st4"/><path d="m400 263.2-70.8-70.7v15l70.8 70.7v-15z" class="st5"/><path d="m400 121.8-70.8 70.7 70.7 70.7 70.7-70.7-70.6-70.7zm0 106.1-35.4-35.4 35.4-35.4 35.4 35.4-35.4 35.4z" class="st6"/><path d="m300 257.1-36 36 7.5 7.5 28.5-28.5v-15z" class="st1"/><path d="M300 257.1v15l28.6 28.5 7.5-7.5-36.1-36z" class="st2"/><path d="M300 363.2v15l70.7-70.7.1-15.1-70.8 70.8z" class="st1"/><path d="m300 363.2-70.8-70.7v15l70.8 70.7v-15z" class="st2"/><path d="m300 221.8-70.8 70.7 70.7 70.7 70.7-70.7-70.6-70.7zm0 106.1-35.4-35.4 35.4-35.4 35.4 35.4-35.4 35.4z" class="st3"/><path d="m200 157.1-36 36 7.5 7.5 28.5-28.5v-15z" class="st4"/><path d="M200 157.1v15l28.6 28.5 7.5-7.5-36.1-36z" class="st5"/><path d="M200 263.2v15l70.7-70.7.1-15.1-70.8 70.8z" class="st4"/><path d="m200 263.2-70.8-70.7v15l70.8 70.7v-15z" class="st5"/><path d="m200 121.8-70.8 70.7 70.7 70.7 70.7-70.7-70.6-70.7zm0 106.1-35.4-35.4 35.4-35.4 35.4 35.4-35.4 35.4z" class="st6"/><path d="m100 257.1-36 36 7.5 7.5 28.5-28.5v-15z" class="st1"/><path d="M100 257.1v15l28.6 28.5 7.5-7.5-36.1-36z" class="st2"/><path d="M100 363.2v15l70.7-70.7.1-15.1-70.8 70.8z" class="st1"/><path d="m100 363.2-70.8-70.7v15l70.8 70.7v-15z" class="st2"/><path d="m100 221.8-70.8 70.7 70.7 70.7 70.7-70.7-70.6-70.7zm0 106.1-35.4-35.4 35.4-35.4 35.4 35.4-35.4 35.4z" class="st3"/><path d="M0 263.2v15l70.7-70.7.1-15.1L0 263.2z" class="st4"/><path d="m0 121.8-70.8 70.7 70.7 70.7 70.7-70.7L0 121.8zm0 106.1-35.4-35.4L0 157.1l35.4 35.4L0 227.9z" class="st6"/><path d="m1900 57.1-36 36 7.5 7.5 28.5-28.5v-15z" class="st1"/><path d="M1900 57.1v15l28.6 28.5 7.5-7.5-36.1-36z" class="st2"/><path d="M1900 163.2v15l70.7-70.7.1-15.1-70.8 70.8z" class="st1"/><path d="m1900 163.2-70.8-70.7v15l70.8 70.7v-15z" class="st2"/><path d="m1900 21.8-70.8 70.7 70.7 70.7 70.7-70.7-70.6-70.7zm0 106.1-35.4-35.4 35.4-35.4 35.4 35.4-35.4 35.4z" class="st3"/><path d="M1800 63.2v15l70.7-70.7.1-15.1-70.8 70.8z" class="st4"/><path d="m1800 63.2-70.8-70.7v15l70.8 70.7v-15z" class="st5"/><path d="m1800-78.2-70.8 70.7 70.7 70.7 70.7-70.7-70.6-70.7zm0 106.1-35.4-35.4 35.4-35.4 35.4 35.4-35.4 35.4z" class="st6"/><path d="m2000 63.2-70.8-70.7v15l70.8 70.7v-15z" class="st5"/><path d="m2000-78.2-70.8 70.7 70.7 70.7 70.7-70.7-70.6-70.7zm0 106.1-35.4-35.4 35.4-35.4 35.4 35.4-35.4 35.4z" class="st6"/><path d="m1700 57.1-36 36 7.5 7.5 28.5-28.5v-15z" class="st1"/><path d="M1700 57.1v15l28.6 28.5 7.5-7.5-36.1-36z" class="st2"/><path d="M1700 163.2v15l70.7-70.7.1-15.1-70.8 70.8z" class="st1"/><path d="m1700 163.2-70.8-70.7v15l70.8 70.7v-15z" class="st2"/><path d="m1700 21.8-70.8 70.7 70.7 70.7 70.7-70.7-70.6-70.7zm0 106.1-35.4-35.4 35.4-35.4 35.4 35.4-35.4 35.4z" class="st3"/><path d="M1600 63.2v15l70.7-70.7.1-15.1-70.8 70.8z" class="st4"/><path d="m1600 63.2-70.8-70.7v15l70.8 70.7v-15z" class="st5"/><path d="m1600-78.2-70.8 70.7 70.7 70.7 70.7-70.7-70.6-70.7zm0 106.1-35.4-35.4 35.4-35.4 35.4 35.4-35.4 35.4z" class="st6"/><path d="m1500 57.1-36 36 7.5 7.5 28.5-28.5v-15z" class="st1"/><path d="M1500 57.1v15l28.6 28.5 7.5-7.5-36.1-36z" class="st2"/><path d="M1500 163.2v15l70.7-70.7.1-15.1-70.8 70.8z" class="st1"/><path d="m1500 163.2-70.8-70.7v15l70.8 70.7v-15z" class="st2"/><path d="m1500 21.8-70.8 70.7 70.7 70.7 70.7-70.7-70.6-70.7zm0 106.1-35.4-35.4 35.4-35.4 35.4 35.4-35.4 35.4z" class="st3"/><path d="M1400 63.2v15l70.7-70.7.1-15.1-70.8 70.8z" class="st4"/><path d="m1400 63.2-70.8-70.7v15l70.8 70.7v-15z" class="st5"/><path d="m1400-78.2-70.8 70.7 70.7 70.7 70.7-70.7-70.6-70.7zm0 106.1-35.4-35.4 35.4-35.4 35.4 35.4-35.4 35.4z" class="st6"/><path d="m1300 57.1-36 36 7.5 7.5 28.5-28.5v-15z" class="st1"/><path d="M1300 57.1v15l28.6 28.5 7.5-7.5-36.1-36z" class="st2"/><path d="M1300 163.2v15l70.7-70.7.1-15.1-70.8 70.8z" class="st1"/><path d="m1300 163.2-70.8-70.7v15l70.8 70.7v-15z" class="st2"/><path d="m1300 21.8-70.8 70.7 70.7 70.7 70.7-70.7-70.6-70.7zm0 106.1-35.4-35.4 35.4-35.4 35.4 35.4-35.4 35.4z" class="st3"/><path d="M1200 63.2v15l70.7-70.7.1-15.1-70.8 70.8z" class="st4"/><path d="m1200 63.2-70.8-70.7v15l70.8 70.7v-15z" class="st5"/><path d="m1200-78.2-70.8 70.7 70.7 70.7 70.7-70.7-70.6-70.7zm0 106.1-35.4-35.4 35.4-35.4 35.4 35.4-35.4 35.4z" class="st6"/><path d="m1100 57.1-36 36 7.5 7.5 28.5-28.5v-15z" class="st1"/><path d="M1100 57.1v15l28.6 28.5 7.5-7.5-36.1-36z" class="st2"/><path d="M1100 163.2v15l70.7-70.7.1-15.1-70.8 70.8z" class="st1"/><path d="m1100 163.2-70.8-70.7v15l70.8 70.7v-15z" class="st2"/><path d="m1100 21.8-70.8 70.7 70.7 70.7 70.7-70.7-70.6-70.7zm0 106.1-35.4-35.4 35.4-35.4 35.4 35.4-35.4 35.4z" class="st3"/><path d="M1000 63.2v15l70.7-70.7.1-15.1-70.8 70.8z" class="st4"/><path d="M1000 63.2 929.2-7.5v15l70.8 70.7v-15z" class="st5"/><path d="M1000-78.2 929.2-7.5l70.7 70.7 70.7-70.7-70.6-70.7zm0 106.1L964.6-7.5l35.4-35.4 35.4 35.4-35.4 35.4z" class="st6"/><path d="m900 57.1-36 36 7.5 7.5L900 72.1v-15z" class="st1"/><path d="M900 57.1v15l28.6 28.5 7.5-7.5-36.1-36z" class="st2"/><path d="M900 163.2v15l70.7-70.7.1-15.1-70.8 70.8z" class="st1"/><path d="m900 163.2-70.8-70.7v15l70.8 70.7v-15z" class="st2"/><path d="m900 21.8-70.8 70.7 70.7 70.7 70.7-70.7L900 21.8zm0 106.1-35.4-35.4L900 57.1l35.4 35.4-35.4 35.4z" class="st3"/><path d="M800 63.2v15l70.7-70.7.1-15.1L800 63.2z" class="st4"/><path d="M800 63.2 729.2-7.5v15L800 78.2v-15z" class="st5"/><path d="M800-78.2 729.2-7.5l70.7 70.7 70.7-70.7L800-78.2zm0 106.1L764.6-7.5 800-42.9l35.4 35.4L800 27.9z" class="st6"/><path d="m700 57.1-36 36 7.5 7.5L700 72.1v-15z" class="st1"/><path d="M700 57.1v15l28.6 28.5 7.5-7.5-36.1-36z" class="st2"/><path d="M700 163.2v15l70.7-70.7.1-15.1-70.8 70.8z" class="st1"/><path d="m700 163.2-70.8-70.7v15l70.8 70.7v-15z" class="st2"/><path d="m700 21.8-70.8 70.7 70.7 70.7 70.7-70.7L700 21.8zm0 106.1-35.4-35.4L700 57.1l35.4 35.4-35.4 35.4z" class="st3"/><path d="m600-42.9-36 36 7.5 7.5L600-27.9v-15z" class="st4"/><path d="M600-42.9v15L628.6.6l7.5-7.5-36.1-36z" class="st5"/><path d="M600 63.2v15l70.7-70.7.1-15.1L600 63.2z" class="st4"/><path d="M600 63.2 529.2-7.5v15L600 78.2v-15z" class="st5"/><path d="M600-78.2 529.2-7.5l70.7 70.7 70.7-70.7L600-78.2zm0 106.1L564.6-7.5 600-42.9l35.4 35.4L600 27.9z" class="st6"/><path d="m500 57.1-36 36 7.5 7.5L500 72.1v-15z" class="st1"/><path d="M500 57.1v15l28.6 28.5 7.5-7.5-36.1-36z" class="st2"/><path d="M500 163.2v15l70.7-70.7.1-15.1-70.8 70.8z" class="st1"/><path d="m500 163.2-70.8-70.7v15l70.8 70.7v-15z" class="st2"/><path d="m500 21.8-70.8 70.7 70.7 70.7 70.7-70.7L500 21.8zm0 106.1-35.4-35.4L500 57.1l35.4 35.4-35.4 35.4z" class="st3"/><path d="M400 63.2v15l70.7-70.7.1-15.1L400 63.2z" class="st4"/><path d="M400 63.2 329.2-7.5v15L400 78.2v-15z" class="st5"/><path d="M400-78.2 329.2-7.5l70.7 70.7 70.7-70.7L400-78.2zm0 106.1L364.6-7.5 400-42.9l35.4 35.4L400 27.9z" class="st6"/><path d="m300 57.1-36 36 7.5 7.5L300 72.1v-15z" class="st1"/><path d="M300 57.1v15l28.6 28.5 7.5-7.5-36.1-36z" class="st2"/><path d="M300 163.2v15l70.7-70.7.1-15.1-70.8 70.8z" class="st1"/><path d="m300 163.2-70.8-70.7v15l70.8 70.7v-15z" class="st2"/><path d="m300 21.8-70.8 70.7 70.7 70.7 70.7-70.7L300 21.8zm0 106.1-35.4-35.4L300 57.1l35.4 35.4-35.4 35.4z" class="st3"/><path d="M200 63.2v15l70.7-70.7.1-15.1L200 63.2z" class="st4"/><path d="M200 63.2 129.2-7.5v15L200 78.2v-15z" class="st5"/><path d="M200-78.2 129.2-7.5l70.7 70.7 70.7-70.7L200-78.2zm0 106.1L164.6-7.5 200-42.9l35.4 35.4L200 27.9z" class="st6"/><path d="m100 57.1-36 36 7.5 7.5L100 72.1v-15z" class="st1"/><path d="M100 57.1v15l28.6 28.5 7.5-7.5-36.1-36z" class="st2"/><path d="M100 163.2v15l70.7-70.7.1-15.1-70.8 70.8z" class="st1"/><path d="M100 163.2 29.2 92.5v15l70.8 70.7v-15z" class="st2"/><path d="M100 21.8 29.2 92.5l70.7 70.7 70.7-70.7L100 21.8zm0 106.1L64.6 92.5 100 57.1l35.4 35.4-35.4 35.4z" class="st3"/><path d="M0 63.2v15L70.7 7.5l.1-15.1L0 63.2z" class="st4"/><path d="M0-78.2-70.8-7.5-.1 63.2 70.6-7.5 0-78.2zM0 27.9-35.4-7.5 0-42.9 35.4-7.5 0 27.9z" class="st6"/><path d="m1800 1156.5-36 36 7.5 7.5 28.5-28.5v-15z" class="st4"/><path d="M1800 1156.5v15l28.6 28.5 7.5-7.5-36.1-36z" class="st5"/><path d="M1800 1262.6v15l70.7-70.7.1-15.1-70.8 70.8z" class="st4"/><path d="m1800 1262.6-70.8-70.7v15l70.8 70.7v-15z" class="st5"/><path d="m1800 1121.2-70.8 70.7 70.7 70.7 70.7-70.7-70.6-70.7zm0 106.1-35.4-35.4 35.4-35.4 35.4 35.4-35.4 35.4z" class="st6"/><path d="m2000 1156.5-36 36 7.5 7.5 28.5-28.5v-15z" class="st4"/><path d="m2000 1262.6-70.8-70.7v15l70.8 70.7v-15z" class="st5"/><path d="m2000 1121.2-70.8 70.7 70.7 70.7 70.7-70.7-70.6-70.7zm0 106.1-35.4-35.4 35.4-35.4 35.4 35.4-35.4 35.4z" class="st6"/><path d="m1600 1156.5-36 36 7.5 7.5 28.5-28.5v-15z" class="st4"/><path d="M1600 1156.5v15l28.6 28.5 7.5-7.5-36.1-36z" class="st5"/><path d="M1600 1262.6v15l70.7-70.7.1-15.1-70.8 70.8z" class="st4"/><path d="m1600 1262.6-70.8-70.7v15l70.8 70.7v-15z" class="st5"/><path d="m1600 1121.2-70.8 70.7 70.7 70.7 70.7-70.7-70.6-70.7zm0 106.1-35.4-35.4 35.4-35.4 35.4 35.4-35.4 35.4z" class="st6"/><path d="m1400 1156.5-36 36 7.5 7.5 28.5-28.5v-15z" class="st4"/><path d="M1400 1156.5v15l28.6 28.5 7.5-7.5-36.1-36z" class="st5"/><path d="M1400 1262.6v15l70.7-70.7.1-15.1-70.8 70.8z" class="st4"/><path d="m1400 1262.6-70.8-70.7v15l70.8 70.7v-15z" class="st5"/><path d="m1400 1121.2-70.8 70.7 70.7 70.7 70.7-70.7-70.6-70.7zm0 106.1-35.4-35.4 35.4-35.4 35.4 35.4-35.4 35.4z" class="st6"/><path d="m1200 1156.5-36 36 7.5 7.5 28.5-28.5v-15z" class="st4"/><path d="M1200 1156.5v15l28.6 28.5 7.5-7.5-36.1-36z" class="st5"/><path d="M1200 1262.6v15l70.7-70.7.1-15.1-70.8 70.8z" class="st4"/><path d="m1200 1262.6-70.8-70.7v15l70.8 70.7v-15z" class="st5"/><path d="m1200 1121.2-70.8 70.7 70.7 70.7 70.7-70.7-70.6-70.7zm0 106.1-35.4-35.4 35.4-35.4 35.4 35.4-35.4 35.4z" class="st6"/><path d="m1000 1156.5-36 36 7.5 7.5 28.5-28.5v-15z" class="st4"/><path d="M1000 1156.5v15l28.6 28.5 7.5-7.5-36.1-36z" class="st5"/><path d="M1000 1262.6v15l70.7-70.7.1-15.1-70.8 70.8z" class="st4"/><path d="m1000 1262.6-70.8-70.7v15l70.8 70.7v-15z" class="st5"/><path d="m1000 1121.2-70.8 70.7 70.7 70.7 70.7-70.7-70.6-70.7zm0 106.1-35.4-35.4 35.4-35.4 35.4 35.4-35.4 35.4z" class="st6"/><path d="m800 1156.5-36 36 7.5 7.5 28.5-28.5v-15z" class="st4"/><path d="M800 1156.5v15l28.6 28.5 7.5-7.5-36.1-36z" class="st5"/><path d="M800 1262.6v15l70.7-70.7.1-15.1-70.8 70.8z" class="st4"/><path d="m800 1262.6-70.8-70.7v15l70.8 70.7v-15z" class="st5"/><path d="m800 1121.2-70.8 70.7 70.7 70.7 70.7-70.7-70.6-70.7zm0 106.1-35.4-35.4 35.4-35.4 35.4 35.4-35.4 35.4z" class="st6"/><path d="m600 1156.5-36 36 7.5 7.5 28.5-28.5v-15z" class="st4"/><path d="M600 1156.5v15l28.6 28.5 7.5-7.5-36.1-36z" class="st5"/><path d="M600 1262.6v15l70.7-70.7.1-15.1-70.8 70.8z" class="st4"/><path d="m600 1262.6-70.8-70.7v15l70.8 70.7v-15z" class="st5"/><path d="m600 1121.2-70.8 70.7 70.7 70.7 70.7-70.7-70.6-70.7zm0 106.1-35.4-35.4 35.4-35.4 35.4 35.4-35.4 35.4z" class="st6"/><path d="m400 1156.5-36 36 7.5 7.5 28.5-28.5v-15z" class="st4"/><path d="M400 1156.5v15l28.6 28.5 7.5-7.5-36.1-36z" class="st5"/><path d="M400 1262.6v15l70.7-70.7.1-15.1-70.8 70.8z" class="st4"/><path d="m400 1262.6-70.8-70.7v15l70.8 70.7v-15z" class="st5"/><path d="m400 1121.2-70.8 70.7 70.7 70.7 70.7-70.7-70.6-70.7zm0 106.1-35.4-35.4 35.4-35.4 35.4 35.4-35.4 35.4z" class="st6"/><path d="m200 1156.5-36 36 7.5 7.5 28.5-28.5v-15z" class="st4"/><path d="M200 1156.5v15l28.6 28.5 7.5-7.5-36.1-36z" class="st5"/><path d="M200 1262.6v15l70.7-70.7.1-15.1-70.8 70.8z" class="st4"/><path d="m200 1262.6-70.8-70.7v15l70.8 70.7v-15z" class="st5"/><path d="m200 1121.2-70.8 70.7 70.7 70.7 70.7-70.7-70.6-70.7zm0 106.1-35.4-35.4 35.4-35.4 35.4 35.4-35.4 35.4z" class="st6"/><path d="M0 1156.5v15l28.6 28.5 7.5-7.5-36.1-36z" class="st5"/><path d="M0 1262.6v15l70.7-70.7.1-15.1L0 1262.6z" class="st4"/><path d="m0 1121.2-70.8 70.7 70.7 70.7 70.7-70.7L0 1121.2zm0 106.1-35.4-35.4L0 1156.5l35.4 35.4L0 1227.3z" class="st6"/></svg>
