<svg xmlns="http://www.w3.org/2000/svg" viewBox="0 0 100 60"><path fill="#AE6AB6" d="M0 0h100v60H0z"/><path fill="#AE6AB6" d="M0 0h11v11H0z"/><path fill="#aa6ab6" d="M10 0h11v11H10z"/><path fill="#a66ab5" d="M0 10h11v11H0z"/><path fill="#a36ab5" d="M20 0h11v11H20z"/><path fill="#9f69b5" d="M10 10h11v11H10z"/><path fill="#9b69b4" d="M0 20h11v11H0z"/><path fill="#9769b3" d="M30 0h11v11H30z"/><path fill="#9369b3" d="M20 10h11v11H20z"/><path fill="#9068b2" d="M10 20h11v11H10z"/><path fill="#8c68b1" d="M0 30h11v11H0z"/><path fill="#8868b0" d="M40 0h11v11H40z"/><path fill="#8468b0" d="M30 10h11v11H30z"/><path fill="#8167af" d="M20 20h11v11H20z"/><path fill="#7d67ae" d="M10 30h11v11H10z"/><path fill="#7966ad" d="M0 40h11v11H0z"/><path fill="#7566ab" d="M50 0h11v11H50z"/><path fill="#7266aa" d="M40 10h11v11H40z"/><path fill="#6e65a9" d="M30 20h11v11H30z"/><path fill="#6a65a8" d="M20 30h11v11H20z"/><path fill="#6764a6" d="M10 40h11v11H10z"/><path fill="#6364a5" d="M0 50h11v11H0z"/><path fill="#6063a3" d="M60 0h11v11H60z"/><path fill="#5c63a2" d="M50 10h11v11H50z"/><path fill="#5962a0" d="M40 20h11v11H40z"/><path fill="#55629f" d="M30 30h11v11H30z"/><path fill="#52619d" d="M20 40h11v11H20z"/><path fill="#4f609b" d="M10 50h11v11H10z"/><path fill="#4b609a" d="M70 0h11v11H70z"/><path fill="#485f98" d="M60 10h11v11H60z"/><path fill="#455e96" d="M50 20h11v11H50z"/><path fill="#425e94" d="M40 30h11v11H40z"/><path fill="#3e5d92" d="M30 40h11v11H30z"/><path fill="#3b5c90" d="M20 50h11v11H20z"/><path fill="#385b8e" d="M80 0h11v11H80z"/><path fill="#355b8c" d="M70 10h11v11H70z"/><path fill="#325a8a" d="M60 20h11v11H60z"/><path fill="#2f5988" d="M50 30h11v11H50z"/><path fill="#2d5886" d="M40 40h11v11H40z"/><path fill="#2a5784" d="M30 50h11v11H30z"/><path fill="#275682" d="M90 0h11v11H90z"/><path fill="#255580" d="M80 10h11v11H80z"/><path fill="#22557d" d="M70 20h11v11H70z"/><path fill="#20547b" d="M60 30h11v11H60z"/><path fill="#1d5379" d="M50 40h11v11H50z"/><path fill="#1b5277" d="M40 50h11v11H40z"/><path fill="#195175" d="M90 10h11v11H90z"/><path fill="#175072" d="M80 20h11v11H80z"/><path fill="#154f70" d="M70 30h11v11H70z"/><path fill="#134e6e" d="M60 40h11v11H60z"/><path fill="#124d6c" d="M50 50h11v11H50z"/><path fill="#104c69" d="M90 20h11v11H90z"/><path fill="#0f4b67" d="M80 30h11v11H80z"/><path fill="#0e4a65" d="M70 40h11v11H70z"/><path fill="#0d4962" d="M60 50h11v11H60z"/><path fill="#0d4860" d="M90 30h11v11H90z"/><path fill="#0c465e" d="M80 40h11v11H80z"/><path fill="#0c455c" d="M70 50h11v11H70z"/><path fill="#0c4459" d="M90 40h11v11H90z"/><path fill="#0c4357" d="M80 50h11v11H80z"/><path fill="#0C4255" d="M90 50h11v11H90z"/></svg>
