<svg xmlns="http://www.w3.org/2000/svg" viewBox="0 0 100 60"><path fill="#C779D0" d="M0 0h100v60H0z"/><path fill="#C779D0" d="M0 0h11v11H0z"/><path fill="#cb79ce" d="M10 0h11v11H10z"/><path fill="#ce78cd" d="M0 10h11v11H0z"/><path fill="#d178cb" d="M20 0h11v11H20z"/><path fill="#d477c9" d="M10 10h11v11H10z"/><path fill="#d877c7" d="M0 20h11v11H0z"/><path fill="#db77c6" d="M30 0h11v11H30z"/><path fill="#de76c4" d="M20 10h11v11H20z"/><path fill="#e076c2" d="M10 20h11v11H10z"/><path fill="#e376c0" d="M0 30h11v11H0z"/><path fill="#e676be" d="M40 0h11v11H40z"/><path fill="#e876bc" d="M30 10h11v11H30z"/><path fill="#eb76ba" d="M20 20h11v11H20z"/><path fill="#ed76b7" d="M10 30h11v11H10z"/><path fill="#f076b5" d="M0 40h11v11H0z"/><path fill="#f276b3" d="M50 0h11v11H50z"/><path fill="#f476b1" d="M40 10h11v11H40z"/><path fill="#f676af" d="M30 20h11v11H30z"/><path fill="#f877ac" d="M20 30h11v11H20z"/><path fill="#fa77aa" d="M10 40h11v11H10z"/><path fill="#fb77a8" d="M0 50h11v11H0z"/><path fill="#fd78a6" d="M60 0h11v11H60z"/><path fill="#ff78a3" d="M50 10h11v11H50z"/><path fill="#ff79a1" d="M40 20h11v11H40z"/><path fill="#ff7a9f" d="M30 30h11v11H30z"/><path fill="#ff7a9d" d="M20 40h11v11H20z"/><path fill="#ff7b9a" d="M10 50h11v11H10z"/><path fill="#ff7c98" d="M70 0h11v11H70z"/><path fill="#ff7d96" d="M60 10h11v11H60z"/><path fill="#ff7e94" d="M50 20h11v11H50z"/><path fill="#ff7f91" d="M40 30h11v11H40z"/><path fill="#ff808f" d="M30 40h11v11H30z"/><path fill="#ff818d" d="M20 50h11v11H20z"/><path fill="#ff828b" d="M80 0h11v11H80z"/><path fill="#ff8388" d="M70 10h11v11H70z"/><path fill="#ff8586" d="M60 20h11v11H60z"/><path fill="#ff8684" d="M50 30h11v11H50z"/><path fill="#ff8782" d="M40 40h11v11H40z"/><path fill="#ff8980" d="M30 50h11v11H30z"/><path fill="#ff8a7e" d="M90 0h11v11H90z"/><path fill="#ff8c7c" d="M80 10h11v11H80z"/><path fill="#ff8d7a" d="M70 20h11v11H70z"/><path fill="#ff8f78" d="M60 30h11v11H60z"/><path fill="#ff9076" d="M50 40h11v11H50z"/><path fill="#ff9274" d="M40 50h11v11H40z"/><path fill="#ff9372" d="M90 10h11v11H90z"/><path fill="#ff9570" d="M80 20h11v11H80z"/><path fill="#ff976f" d="M70 30h11v11H70z"/><path fill="#ff986d" d="M60 40h11v11H60z"/><path fill="#ff9a6b" d="M50 50h11v11H50z"/><path fill="#ff9c6a" d="M90 20h11v11H90z"/><path fill="#ff9e68" d="M80 30h11v11H80z"/><path fill="#ff9f67" d="M70 40h11v11H70z"/><path fill="#ffa165" d="M60 50h11v11H60z"/><path fill="#ffa364" d="M90 30h11v11H90z"/><path fill="#ffa562" d="M80 40h11v11H80z"/><path fill="#ffa761" d="M70 50h11v11H70z"/><path fill="#ffa860" d="M90 40h11v11H90z"/><path fill="#ffaa5f" d="M80 50h11v11H80z"/><path fill="#FEAC5E" d="M90 50h11v11H90z"/></svg>
