<svg xmlns="http://www.w3.org/2000/svg" xml:space="preserve" viewBox="0 0 1200 720"><path fill="#004d7a" d="M0 0h1200v720H0z"/><path fill="#008793" d="m0 60 60 60 60-60 60 60 60-60 60 60 60-60 60 60 60-60 60 60 60-60 60 60 60-60 60 60 60-60 60 60 60-60 60 60 60-60 60 60 60-60V0l-60 60-60-60-60 60-60-60-60 60-60-60-60 60-60-60-60 60-60-60-60 60-60-60-60 60-60-60-60 60-60-60-60 60-60-60-60 60L0 0zm0 120 60 60 60-60 60 60 60-60 60 60 60-60 60 60 60-60 60 60 60-60 60 60 60-60 60 60 60-60 60 60 60-60 60 60 60-60 60 60 60-60v-60l-60 60-60-60-60 60-60-60-60 60-60-60-60 60-60-60-60 60-60-60-60 60-60-60-60 60-60-60-60 60-60-60-60 60-60-60-60 60-60-60zm0 120 60 60 60-60 60 60 60-60 60 60 60-60 60 60 60-60 60 60 60-60 60 60 60-60 60 60 60-60 60 60 60-60 60 60 60-60 60 60 60-60v-60l-60 60-60-60-60 60-60-60-60 60-60-60-60 60-60-60-60 60-60-60-60 60-60-60-60 60-60-60-60 60-60-60-60 60-60-60-60 60-60-60zm0 120 60 60 60-60 60 60 60-60 60 60 60-60 60 60 60-60 60 60 60-60 60 60 60-60 60 60 60-60 60 60 60-60 60 60 60-60 60 60 60-60v-60l-60 60-60-60-60 60-60-60-60 60-60-60-60 60-60-60-60 60-60-60-60 60-60-60-60 60-60-60-60 60-60-60-60 60-60-60-60 60-60-60zm0 120 60 60 60-60 60 60 60-60 60 60 60-60 60 60 60-60 60 60 60-60 60 60 60-60 60 60 60-60 60 60 60-60 60 60 60-60 60 60 60-60v-60l-60 60-60-60-60 60-60-60-60 60-60-60-60 60-60-60-60 60-60-60-60 60-60-60-60 60-60-60-60 60-60-60-60 60-60-60-60 60-60-60zm0 120 60 60 60-60 60 60 60-60 60 60 60-60 60 60 60-60 60 60 60-60 60 60 60-60 60 60 60-60 60 60 60-60 60 60 60-60 60 60 60-60v-60l-60 60-60-60-60 60-60-60-60 60-60-60-60 60-60-60-60 60-60-60-60 60-60-60-60 60-60-60-60 60-60-60-60 60-60-60-60 60-60-60z"/></svg>
