<svg xmlns="http://www.w3.org/2000/svg" viewBox="0 0 800 800">
  <rect width="100%" height="100%" fill="gray" />

  <!-- 经纬线 -->
  <line x1="400" x2="400" y1="0" y2="800" stroke="black" />
  <line x1="0" x2="800" y1="400" y2="400" stroke="black" />

  <!-- 出生点 -->
  <text x="114" y="40" font-size="18" text-anchor="middle">出生点</text>
  <g id="出生点" opacity="0.1">
    <text x="114" y="40" font-size="18" text-anchor="middle">出生点</text>

    <!-- 出生点 -->
    <circle cx="400" cy="400" r="5" />
    <text x="410" y="390" font-size="14">出生点</text>
  </g>

  <!-- 住址 -->
  <text x="228" y="40" font-size="18" text-anchor="middle">住址</text>
  <g id="住址" opacity="0.1">
    <text x="228" y="40" font-size="18" text-anchor="middle">住址</text>

    <!-- 桃花源 -->
    <circle cx="453" cy="437" r="5" />
    <text x="463" y="427" font-size="14">桃花源</text>

    <!-- Pum_K家 -->
    <circle cx="392" cy="449" r="5" />
    <text x="402" y="439" font-size="14">Pum_K家</text>

    <!-- gjp家 -->
    <circle cx="364" cy="421" r="5" />
    <text x="374" y="411" font-size="14">gjp家</text>

    <!-- zfzz 家 -->
    <circle cx="489" cy="396" r="5" />
    <text x="499" y="386" font-size="14">zfzz 家</text>

    <!-- warrah家 -->
    <circle cx="467" cy="384" r="5" />
    <text x="477" y="374" font-size="14">warrah家</text>

    <!-- 开罗 -->
    <circle cx="413" cy="350" r="5" />
    <text x="423" y="340" font-size="14">开罗</text>
  </g>

  <!-- 结构 -->
  <text x="342" y="40" font-size="18" text-anchor="middle">结构</text>
  <g id="结构" opacity="0.1">
    <text x="342" y="40" font-size="18" text-anchor="middle">结构</text>

    <!-- 末地传送门 -->
    <circle cx="484" cy="464" r="5" />
    <text x="494" y="454" font-size="14">末地传送门</text>

    <!-- 深暗之域 古城 -->
    <circle cx="337" cy="405" r="5" />
    <text x="347" y="395" font-size="14">深暗之域 古城</text>

    <!-- 前哨站 -->
    <circle cx="421" cy="423" r="5" />
    <text x="431" y="413" font-size="14">前哨站</text>

    <!-- mansion -->
    <circle cx="666" cy="420" r="5" />
    <text x="676" y="410" font-size="14">mansion</text>

    <!-- 海底神殿 -->
    <circle cx="350" cy="355" r="5" />
    <text x="360" y="345" font-size="14">海底神殿</text>
  </g>

  <!-- 资源 -->
  <text x="457" y="40" font-size="18" text-anchor="middle">资源</text>
  <g id="资源" opacity="0.1">
    <text x="457" y="40" font-size="18" text-anchor="middle">资源</text>

    <!-- 黑头塔 -->
    <circle cx="525" cy="637" r="5" />
    <text x="535" y="627" font-size="14">黑头塔</text>

    <!-- 史莱姆农场 -->
    <circle cx="78" cy="300" r="5" />
    <text x="88" y="290" font-size="14">史莱姆农场</text>

    <!-- 袭击塔 -->
    <circle cx="356" cy="382" r="5" />
    <text x="366" y="372" font-size="14">袭击塔</text>

    <!-- 溺尸塔 -->
    <circle cx="409" cy="417" r="5" />
    <text x="419" y="407" font-size="14">溺尸塔</text>

    <!-- 刷花机 16色羊毛机 -->
    <circle cx="489" cy="396" r="5" />
    <text x="499" y="386" font-size="14">刷花机 16色羊毛机</text>
  </g>

  <!-- 群系 -->
  <text x="571" y="40" font-size="18" text-anchor="middle">群系</text>
  <g id="群系" opacity="0.1">
    <text x="571" y="40" font-size="18" text-anchor="middle">群系</text>

    <!-- 沙漠 -->
    <circle cx="16" cy="467" r="5" />
    <text x="26" y="457" font-size="14">沙漠</text>

    <!-- 蘑菇岛 -->
    <circle cx="400" cy="226" r="5" />
    <text x="410" y="216" font-size="14">蘑菇岛</text>
  </g>

  <!-- 未知 -->
  <text x="685" y="40" font-size="18" text-anchor="middle">未知</text>
  <g id="未知" opacity="0.1">
    <text x="685" y="40" font-size="18" text-anchor="middle">未知</text>

    <!-- 地狱上层op快乐屋 -->
    <circle cx="399" cy="399" r="5" />
    <text x="409" y="389" font-size="14">地狱上层op快乐屋</text>
  </g>

  <style>
  #出生点:hover{opacity:1} #住址:hover{opacity:1} #结构:hover{opacity:1} #资源:hover{opacity:1} #群系:hover{opacity:1} #未知:hover{opacity:1} text{fill:white;} circle{fill:black;} *{transition: all .5s ease-out;}
  </style>
</svg>
