<svg xmlns="http://www.w3.org/2000/svg" xml:space="preserve" viewBox="0 0 226.8 226.8"><path d="M-.2 198.5h28.4v28.4H-.2v-28.4zm0-28.4h28.4v28.4H-.2v-28.4zm28.4 28.4h28.4v28.4H28.2v-28.4zm0-28.4h28.4v28.4H28.2v-28.4zm28.4 28.4H85v28.4H56.6v-28.4zm0-28.4H85v28.4H56.6v-28.4zM85 198.5h28.4v28.4H85v-28.4zm0-28.4h28.4v28.4H85v-28.4zm28.4 28.4h28.4v28.4h-28.4v-28.4zm0-28.4h28.4v28.4h-28.4v-28.4zm28.4 28.4h28.4v28.4h-28.4v-28.4zm0-28.4h28.4v28.4h-28.4v-28.4zm28.4 28.4h28.4v28.4h-28.4v-28.4zm0-28.4h28.4v28.4h-28.4v-28.4zm28.4 28.4H227v28.4h-28.4v-28.4zm0-28.4H227v28.4h-28.4v-28.4zM85 141.7h28.4v28.4H85v-28.4zm0-28.4h28.4v28.4H85v-28.4zm28.4 28.4h28.4v28.4h-28.4v-28.4zM56.6 84.9H85v28.4H56.6V84.9z" style="fill:#f5bd8f"/><path d="M56.6 141.7H85v28.4H56.6v-28.4zm0-28.4H85v28.4H56.6v-28.4zm85.2 28.4h28.4v28.4h-28.4v-28.4zm0-28.4h28.4v28.4h-28.4v-28.4z" style="fill:#020102"/><path d="M28.2 141.7h28.4v28.4H28.2v-28.4zm0-28.4h28.4v28.4H28.2v-28.4zm142 28.4h28.4v28.4h-28.4v-28.4zm0-28.4h28.4v28.4h-28.4v-28.4zM56.6 56.5H85v28.4H56.6V56.5zm28.4 0h28.4v28.4H85V56.5zm28.4 0h28.4v28.4h-28.4V56.5zm28.4 0h28.4v28.4h-28.4V56.5z" style="fill:#f7f7f7"/><path d="M85 84.9h28.4v28.4H85V84.9zm28.4 0h28.4v28.4h-28.4V84.9z" style="fill:#7c5649"/><path d="M113.4 113.3h28.4v28.4h-28.4v-28.4zm28.4-28.4h28.4v28.4h-28.4V84.9z" style="fill:#724f45"/><path d="M28.2 84.9h28.4v28.4H28.2V84.9zm0-28.4h28.4v28.4H28.2V56.5zm142 28.4h28.4v28.4h-28.4V84.9zM-.2 28.2h28.4v28.4H-.2V28.2z" style="fill:#6a4a40"/><path d="M-.2 141.7h28.4v28.4H-.2v-28.4zm0-28.4h28.4v28.4H-.2v-28.4zm0-28.4h28.4v28.4H-.2V84.9zm198.8 56.8H227v28.4h-28.4v-28.4zm0-28.4H227v28.4h-28.4v-28.4zm0-28.4H227v28.4h-28.4V84.9zM28.2 28.2h28.4v28.4H28.2V28.2z" style="fill:#60423b"/><path d="M28.2-.2h28.4v28.4H28.2V-.2zm28.4 28.4H85v28.4H56.6V28.2zm28.4 0h28.4v28.4H85V28.2z" style="fill:#543a33"/><path d="M56.6-.2H85v28.4H56.6V-.2zM85-.2h28.4v28.4H85V-.2zm28.4 28.4h28.4v28.4h-28.4V28.2z" style="fill:#452f28"/><path d="M170.2 56.5h28.4v28.4h-28.4V56.5zm-28.4-28.3h28.4v28.4h-28.4V28.2zM113.4-.2h28.4v28.4h-28.4V-.2z" style="fill:#c5c78f"/><path d="M-.2 56.5h28.4v28.4H-.2V56.5zm198.8 0H227v28.4h-28.4V56.5zM141.8-.2h28.4v28.4h-28.4V-.2zm28.4 28.4h28.4v28.4h-28.4V28.2z" style="fill:#d4d795"/><path d="M170.2-.2h28.4v28.4h-28.4V-.2zm28.4 28.4H227v28.4h-28.4V28.2z" style="fill:#dedf9c"/><path d="M-.2-.2h28.4v28.4H-.2V-.2zm198.8 0H227v28.4h-28.4V-.2z" style="fill:#e5e3a3"/></svg>
